<?xml version="1.0" standalone="no"?><!DOCTYPE svg PUBLIC "-//W3C//DTD SVG 1.1//EN" "http://www.w3.org/Graphics/SVG/1.1/DTD/svg11.dtd"><svg t="1573881254312" class="icon" viewBox="0 0 1027 1024" version="1.1" xmlns="http://www.w3.org/2000/svg" p-id="4463" xmlns:xlink="http://www.w3.org/1999/xlink" width="32.09375" height="32"><defs><style type="text/css"></style></defs><path d="M822.5 820.8H642.3c-14.2 0-25.7-11.5-25.7-25.7s11.5-25.7 25.7-25.7h180.2c84.8 0 153.8-69 153.8-153.8 0-84.8-69-153.8-153.8-153.8-18.1 0-35.8 3.1-52.6 9.2-11.2 4.1-23.7-0.1-30.3-10.1-6.5-10-5.3-23.1 2.9-31.8 18.2-19.2 28.3-44.3 28.3-70.8 0-56.7-46.1-102.8-102.8-102.8-33 0-63.1 15.3-82.7 41.8-11.8 15.9-18.6 34.8-19.8 54.5-0.7 10.9-8.2 20.2-18.7 23.2s-21.7-1.1-28-10l-0.3-0.4c-5.5-7.8-11.6-15.5-18-22.7-48.8-54.8-118.8-86.3-192.2-86.3-141.6 0-256.9 115.3-256.9 256.9 0 141.7 115.2 256.9 256.9 256.9h128.5c14.2 0 25.7 11.5 25.7 25.7s-11.5 25.7-25.7 25.7H308.3C138.3 820.8 0 682.5 0 512.5s138.3-308.3 308.3-308.3c82.4 0 161.2 33 218.9 91.2 4.5-10 10.1-19.6 16.7-28.5 29-39.3 75.4-62.7 124.1-62.7 85 0 154.1 69.2 154.1 154.1 0 18-3.1 35.7-9 52.3 3.1-0.2 6.3-0.2 9.4-0.2 113.1 0 205.2 92.1 205.2 205.2s-92.1 205.2-205.2 205.2z m0 0" fill="#2c2c2c" p-id="4464"></path><path d="M660.5 622.8L557.8 520c-10-10-26.3-10-36.3 0L418.7 622.8c-10 10-10 26.3 0 36.3 10 10 26.3 10 36.3 0l58.9-58.9v194.9c0 14.2 11.5 25.7 25.7 25.7s25.7-11.5 25.7-25.7V600.2l58.9 58.9c5 5 11.6 7.5 18.2 7.5s13.2-2.5 18.2-7.5c10-10 10-26.3-0.1-36.3z m0 0" fill="#2c2c2c" p-id="4465"></path></svg>